<?xml version="1.0" standalone="no"?>
<!DOCTYPE svg PUBLIC "-//W3C//DTD SVG 20010904//EN"
 "http://www.w3.org/TR/2001/REC-SVG-20010904/DTD/svg10.dtd">
<svg version="1.0" xmlns="http://www.w3.org/2000/svg"
 width="626.000000pt" height="236.000000pt" viewBox="0 0 626.000000 236.000000"
 preserveAspectRatio="xMidYMid meet">

<g transform="translate(0.000000,236.000000) scale(0.100000,-0.100000)"
fill="#000000" stroke="none">
<path d="M740 1205 c0 -756 -10 -703 104 -585 37 39 69 70 71 70 1 0 5 -18 9
-40 5 -31 13 -43 36 -55 27 -14 33 -14 59 -1 35 19 41 38 41 151 l0 90 93 93
c96 96 122 107 132 58 19 -96 21 -101 53 -119 27 -16 38 -17 63 -8 55 19 58
30 59 216 l0 170 113 113 112 113 -55 50 c-125 113 -275 204 -433 263 -107 40
-293 76 -393 76 l-64 0 0 -655z m284 585 c49 -11 91 -22 93 -24 2 -2 -2 -15
-8 -29 -12 -27 -7 -57 11 -57 6 0 18 16 27 35 19 41 19 41 133 -12 78 -35 147
-77 216 -128 41 -31 41 -31 23 -53 -18 -22 -16 -52 3 -52 5 0 20 11 33 24 l23
23 25 -24 24 -25 -41 -38 -41 -38 -60 47 c-33 26 -86 63 -117 81 -32 19 -58
39 -58 43 0 5 8 22 17 38 14 23 15 31 4 41 -10 11 -17 8 -36 -14 -12 -15 -24
-31 -26 -37 -3 -7 -33 1 -78 20 -41 17 -125 44 -185 59 -74 19 -110 33 -109
42 0 7 3 24 5 38 2 19 -1 25 -17 25 -14 0 -22 -10 -29 -35 -12 -45 -10 -43
-45 -35 -30 6 -31 8 -31 62 l0 56 78 -7 c42 -4 117 -16 166 -26z m-103 -145
c177 -31 374 -117 524 -230 l76 -58 -28 -29 c-27 -28 -28 -29 -33 -8 -3 12 -8
21 -12 21 -5 -1 -12 -1 -18 -1 -6 0 -10 -76 -10 -209 0 -224 -3 -236 -52 -229
-18 2 -24 12 -30 45 -12 74 -42 112 -88 113 -19 0 -47 -21 -105 -80 l-80 -81
-5 38 c-4 30 -9 38 -25 38 -19 0 -20 -8 -23 -172 -2 -165 -3 -173 -22 -173
-14 0 -20 7 -20 23 0 31 -36 87 -57 87 -10 0 -43 -26 -75 -57 l-58 -57 0 106
0 106 31 12 c90 38 92 182 4 224 l-35 17 0 284 0 285 28 0 c15 0 66 -7 113
-15z"/>
<path d="M880 1578 c-40 -27 -64 -86 -55 -130 14 -61 93 -117 143 -101 86 27
118 67 109 140 -7 64 -48 104 -114 110 -39 4 -55 0 -83 -19z"/>
<path d="M1065 1255 c-14 -13 -25 -34 -25 -45 0 -24 18 -61 34 -72 22 -15 76
-8 96 12 20 20 27 74 12 96 -11 16 -48 34 -72 34 -11 0 -32 -11 -45 -25z"/>
<path d="M4760 1305 c0 -52 1 -55 25 -55 24 0 25 3 25 55 0 52 -1 55 -25 55
-24 0 -25 -3 -25 -55z"/>
<path d="M1850 1125 l0 -175 35 0 35 0 0 55 c0 53 1 55 45 85 25 17 49 30 54
28 4 -2 41 -40 81 -85 71 -81 74 -83 118 -83 l45 0 -19 23 c-11 12 -54 60 -95
106 l-74 84 25 18 c14 11 56 41 95 69 l69 50 -59 0 c-58 0 -63 -2 -165 -75
-58 -41 -108 -75 -112 -75 -5 0 -8 34 -8 75 l0 75 -35 0 -35 0 0 -175z"/>
<path d="M2314 1287 c-2 -7 -3 -85 -2 -172 l3 -160 33 -3 32 -3 0 70 0 71 140
0 140 0 0 -70 0 -70 35 0 35 0 0 175 0 175 -35 0 -35 0 0 -70 0 -70 -140 0
-140 0 0 70 0 70 -30 0 c-17 0 -33 -6 -36 -13z"/>
<path d="M2780 1125 l0 -175 35 0 35 0 0 55 0 55 134 0 135 0 3 -52 c3 -52 4
-53 36 -56 l32 -3 0 130 c0 126 -1 130 -27 162 -43 51 -75 59 -238 59 l-145 0
0 -175z m314 84 c19 -15 26 -30 26 -55 l0 -34 -135 0 -135 0 0 55 0 55 109 0
c94 0 112 -3 135 -21z"/>
<path d="M3240 1125 l0 -175 35 0 35 0 0 70 0 70 118 0 c172 0 218 30 229 148
l6 62 -212 0 -211 0 0 -175z m350 95 c0 -6 -11 -22 -25 -35 -23 -24 -30 -25
-140 -25 l-115 0 0 35 0 35 140 0 c91 0 140 -4 140 -10z"/>
<path d="M3710 1125 l0 -176 33 3 32 3 0 170 0 170 -32 3 -33 3 0 -176z"/>
<path d="M3830 1124 l0 -175 33 3 32 3 3 123 3 123 132 -125 c121 -115 135
-126 170 -126 l37 0 0 175 0 175 -35 0 -35 0 0 -132 0 -133 -133 133 c-122
122 -135 132 -170 132 l-37 0 0 -176z"/>
<path d="M4383 1289 c-18 -5 -45 -26 -60 -46 -27 -35 -28 -42 -31 -166 l-4
-129 164 4 c149 3 166 5 194 25 48 34 59 73 59 203 l0 115 -145 2 c-80 1 -159
-3 -177 -8z m256 -145 c-5 -119 -13 -124 -165 -124 l-114 0 0 76 c0 124 11
132 174 133 l108 1 -3 -86z"/>
<path d="M4860 1265 l0 -34 142 -3 142 -3 -142 -98 -142 -98 0 -40 0 -39 198
2 197 3 3 32 3 32 -143 3 -143 3 143 99 c143 99 143 99 140 135 l-3 36 -197 3
-198 2 0 -35z"/>
</g>
</svg>
